<svg width="1200" height="720" viewBox="0 0 1200 720" fill="none" xmlns="http://www.w3.org/2000/svg">
  <defs>
    <linearGradient id="bg" x1="0" y1="0" x2="1" y2="1">
      <stop stop-color="#22D3EE" stop-opacity="0.18"/>
      <stop offset="1" stop-color="#0B1220" stop-opacity="0"/>
    </linearGradient>
  </defs>
  <rect width="1200" height="720" rx="28" fill="#070A0F"/>
  <rect x="28" y="28" width="1144" height="664" rx="22" fill="url(#bg)" stroke="rgba(255,255,255,0.10)"/>

  <rect x="90" y="120" width="1020" height="480" rx="26" fill="rgba(255,255,255,0.04)" stroke="rgba(255,255,255,0.10)"/>
  <rect x="90" y="120" width="1020" height="64" rx="26" fill="rgba(255,255,255,0.03)"/>
  <circle cx="130" cy="152" r="8" fill="rgba(255,255,255,0.22)"/>
  <circle cx="160" cy="152" r="8" fill="rgba(255,255,255,0.16)"/>
  <circle cx="190" cy="152" r="8" fill="rgba(255,255,255,0.12)"/>
  <text x="230" y="158" fill="rgba(255,255,255,0.70)" font-family="ui-sans-serif, system-ui" font-weight="600" font-size="14">Personalizer Builder</text>

  <rect x="130" y="210" width="320" height="360" rx="22" fill="rgba(255,255,255,0.03)" stroke="rgba(255,255,255,0.08)"/>
  <text x="154" y="244" fill="rgba(255,255,255,0.75)" font-family="ui-sans-serif, system-ui" font-weight="700" font-size="13">Fields</text>
  <rect x="154" y="270" width="272" height="50" rx="16" fill="rgba(34,211,238,0.14)" stroke="rgba(34,211,238,0.28)"/>
  <rect x="154" y="332" width="272" height="50" rx="16" fill="rgba(255,255,255,0.06)"/>
  <rect x="154" y="394" width="272" height="50" rx="16" fill="rgba(255,255,255,0.06)"/>
  <rect x="154" y="456" width="200" height="50" rx="16" fill="rgba(255,255,255,0.04)" stroke="rgba(255,255,255,0.10)" stroke-dasharray="8 8"/>
  <text x="178" y="302" fill="rgba(255,255,255,0.80)" font-family="ui-sans-serif, system-ui" font-weight="600" font-size="12">Text</text>
  <text x="178" y="364" fill="rgba(255,255,255,0.70)" font-family="ui-sans-serif, system-ui" font-weight="600" font-size="12">Options</text>
  <text x="178" y="426" fill="rgba(255,255,255,0.70)" font-family="ui-sans-serif, system-ui" font-weight="600" font-size="12">Upload</text>
  <text x="178" y="488" fill="rgba(255,255,255,0.55)" font-family="ui-sans-serif, system-ui" font-weight="600" font-size="12">Add field…</text>

  <rect x="490" y="210" width="320" height="360" rx="22" fill="rgba(34,211,238,0.06)" stroke="rgba(34,211,238,0.18)"/>
  <text x="514" y="244" fill="rgba(255,255,255,0.75)" font-family="ui-sans-serif, system-ui" font-weight="700" font-size="13">Layers</text>
  <rect x="514" y="270" width="272" height="70" rx="18" fill="rgba(255,255,255,0.05)" stroke="rgba(255,255,255,0.10)"/>
  <rect x="514" y="354" width="272" height="70" rx="18" fill="rgba(255,255,255,0.05)" stroke="rgba(255,255,255,0.10)"/>
  <rect x="514" y="438" width="272" height="70" rx="18" fill="rgba(255,255,255,0.05)" stroke="rgba(255,255,255,0.10)"/>
  <text x="536" y="312" fill="rgba(255,255,255,0.70)" font-family="ui-sans-serif, system-ui" font-weight="600" font-size="12">Text layer → Name</text>
  <text x="536" y="396" fill="rgba(255,255,255,0.70)" font-family="ui-sans-serif, system-ui" font-weight="600" font-size="12">Option layer → Style</text>
  <text x="536" y="480" fill="rgba(255,255,255,0.70)" font-family="ui-sans-serif, system-ui" font-weight="600" font-size="12">Image frame → Upload</text>

  <rect x="850" y="210" width="230" height="360" rx="22" fill="rgba(255,255,255,0.03)" stroke="rgba(255,255,255,0.08)"/>
  <text x="874" y="244" fill="rgba(255,255,255,0.75)" font-family="ui-sans-serif, system-ui" font-weight="700" font-size="13">Preview</text>
  <rect x="874" y="270" width="182" height="182" rx="18" fill="rgba(34,211,238,0.10)" stroke="rgba(34,211,238,0.24)"/>
  <rect x="874" y="468" width="182" height="14" rx="7" fill="rgba(255,255,255,0.08)"/>
  <rect x="874" y="494" width="150" height="14" rx="7" fill="rgba(255,255,255,0.06)"/>
</svg>

