<svg width="1200" height="720" viewBox="0 0 1200 720" fill="none" xmlns="http://www.w3.org/2000/svg">
  <defs>
    <linearGradient id="bg" x1="0" y1="0" x2="1" y2="1">
      <stop stop-color="#22D3EE" stop-opacity="0.22"/>
      <stop offset="1" stop-color="#0B1220" stop-opacity="0"/>
    </linearGradient>
  </defs>
  <rect width="1200" height="720" rx="28" fill="#070A0F"/>
  <rect x="28" y="28" width="1144" height="664" rx="22" fill="url(#bg)" stroke="rgba(255,255,255,0.10)"/>

  <rect x="90" y="120" width="470" height="480" rx="22" fill="rgba(255,255,255,0.04)" stroke="rgba(255,255,255,0.10)"/>
  <rect x="130" y="170" width="390" height="220" rx="18" fill="rgba(34,211,238,0.10)" stroke="rgba(34,211,238,0.28)"/>
  <rect x="130" y="416" width="220" height="14" rx="7" fill="rgba(255,255,255,0.08)"/>
  <rect x="130" y="442" width="320" height="14" rx="7" fill="rgba(255,255,255,0.08)"/>
  <rect x="130" y="476" width="170" height="44" rx="14" fill="rgba(34,211,238,0.18)" stroke="rgba(34,211,238,0.35)"/>

  <rect x="640" y="160" width="470" height="420" rx="22" fill="rgba(255,255,255,0.04)" stroke="rgba(255,255,255,0.10)"/>
  <circle cx="875" cy="370" r="120" fill="rgba(34,211,238,0.13)"/>
  <path d="M810 395c28 36 94 36 130 0" stroke="rgba(255,255,255,0.70)" stroke-width="8" stroke-linecap="round"/>
  <circle cx="835" cy="350" r="10" fill="rgba(255,255,255,0.70)"/>
  <circle cx="915" cy="350" r="10" fill="rgba(255,255,255,0.70)"/>

  <text x="106" y="152" fill="rgba(255,255,255,0.85)" font-family="ui-sans-serif, system-ui" font-weight="700" font-size="16">Live preview</text>
  <text x="656" y="192" fill="rgba(255,255,255,0.75)" font-family="ui-sans-serif, system-ui" font-weight="600" font-size="14">Customer confidence</text>
</svg>

