<svg width="1200" height="720" viewBox="0 0 1200 720" fill="none" xmlns="http://www.w3.org/2000/svg">
  <rect width="1200" height="720" rx="28" fill="#070A0F"/>
  <rect x="28" y="28" width="1144" height="664" rx="22" fill="rgba(255,255,255,0.02)" stroke="rgba(255,255,255,0.10)"/>

  <rect x="120" y="160" width="520" height="400" rx="22" fill="rgba(255,255,255,0.04)" stroke="rgba(255,255,255,0.10)"/>
  <rect x="170" y="210" width="420" height="56" rx="16" fill="rgba(255,255,255,0.06)"/>
  <rect x="170" y="286" width="260" height="14" rx="7" fill="rgba(255,255,255,0.08)"/>
  <rect x="170" y="314" width="340" height="14" rx="7" fill="rgba(255,255,255,0.08)"/>
  <rect x="170" y="360" width="420" height="140" rx="18" fill="rgba(34,211,238,0.08)" stroke="rgba(34,211,238,0.22)"/>

  <rect x="720" y="180" width="360" height="360" rx="22" fill="rgba(34,211,238,0.08)" stroke="rgba(34,211,238,0.22)"/>
  <path d="M900 260l40 40-40 40-40-40 40-40z" fill="rgba(34,211,238,0.20)" stroke="rgba(34,211,238,0.55)" stroke-width="4"/>
  <path d="M780 420h240" stroke="rgba(255,255,255,0.25)" stroke-width="6" stroke-linecap="round"/>
  <path d="M820 460h160" stroke="rgba(255,255,255,0.25)" stroke-width="6" stroke-linecap="round"/>

  <text x="136" y="152" fill="rgba(255,255,255,0.85)" font-family="ui-sans-serif, system-ui" font-weight="700" font-size="16">Theme extension</text>
  <text x="736" y="212" fill="rgba(255,255,255,0.75)" font-family="ui-sans-serif, system-ui" font-weight="600" font-size="14">OS2-friendly delivery</text>
</svg>

