<svg width="1200" height="720" viewBox="0 0 1200 720" fill="none" xmlns="http://www.w3.org/2000/svg">
  <rect width="1200" height="720" rx="28" fill="#070A0F"/>
  <rect x="28" y="28" width="1144" height="664" rx="22" fill="rgba(255,255,255,0.02)" stroke="rgba(255,255,255,0.10)"/>

  <rect x="120" y="150" width="460" height="420" rx="22" fill="rgba(255,255,255,0.04)" stroke="rgba(255,255,255,0.10)"/>
  <text x="150" y="192" fill="rgba(255,255,255,0.80)" font-family="ui-sans-serif, system-ui" font-weight="700" font-size="14">Templates</text>

  <rect x="150" y="220" width="400" height="70" rx="18" fill="rgba(34,211,238,0.14)" stroke="rgba(34,211,238,0.28)"/>
  <rect x="150" y="304" width="400" height="70" rx="18" fill="rgba(255,255,255,0.06)"/>
  <rect x="150" y="388" width="400" height="70" rx="18" fill="rgba(255,255,255,0.06)"/>
  <text x="176" y="262" fill="rgba(255,255,255,0.80)" font-family="ui-sans-serif, system-ui" font-weight="700" font-size="12">Engraving template</text>
  <text x="176" y="346" fill="rgba(255,255,255,0.70)" font-family="ui-sans-serif, system-ui" font-weight="700" font-size="12">Photo upload template</text>
  <text x="176" y="430" fill="rgba(255,255,255,0.70)" font-family="ui-sans-serif, system-ui" font-weight="700" font-size="12">Custom label template</text>

  <rect x="640" y="150" width="440" height="420" rx="22" fill="rgba(34,211,238,0.06)" stroke="rgba(34,211,238,0.18)"/>
  <text x="668" y="192" fill="rgba(255,255,255,0.80)" font-family="ui-sans-serif, system-ui" font-weight="700" font-size="14">Targeting rules</text>

  <rect x="668" y="220" width="384" height="64" rx="18" fill="rgba(255,255,255,0.06)"/>
  <text x="692" y="258" fill="rgba(255,255,255,0.70)" font-family="ui-sans-serif, system-ui" font-weight="600" font-size="12">Tag contains: POD</text>
  <rect x="668" y="300" width="384" height="64" rx="18" fill="rgba(255,255,255,0.06)"/>
  <text x="692" y="338" fill="rgba(255,255,255,0.70)" font-family="ui-sans-serif, system-ui" font-weight="600" font-size="12">Vendor equals: Zenovee</text>
  <rect x="668" y="380" width="384" height="64" rx="18" fill="rgba(255,255,255,0.06)"/>
  <text x="692" y="418" fill="rgba(255,255,255,0.70)" font-family="ui-sans-serif, system-ui" font-weight="600" font-size="12">Title matches: *Engraved*</text>

  <rect x="668" y="470" width="210" height="56" rx="16" fill="rgba(34,211,238,0.18)" stroke="rgba(34,211,238,0.35)"/>
  <rect x="890" y="470" width="162" height="56" rx="16" fill="rgba(255,255,255,0.05)" stroke="rgba(255,255,255,0.12)"/>
  <text x="700" y="504" fill="rgba(255,255,255,0.85)" font-family="ui-sans-serif, system-ui" font-weight="700" font-size="12">Apply template</text>
  <text x="922" y="504" fill="rgba(255,255,255,0.70)" font-family="ui-sans-serif, system-ui" font-weight="700" font-size="12">Preview</text>
</svg>

