<svg width="1200" height="720" viewBox="0 0 1200 720" fill="none" xmlns="http://www.w3.org/2000/svg">
  <rect width="1200" height="720" rx="28" fill="#070A0F"/>
  <rect x="28" y="28" width="1144" height="664" rx="22" fill="rgba(255,255,255,0.02)" stroke="rgba(255,255,255,0.10)"/>

  <rect x="120" y="150" width="520" height="420" rx="22" fill="rgba(34,211,238,0.06)" stroke="rgba(34,211,238,0.18)"/>
  <text x="150" y="192" fill="rgba(255,255,255,0.80)" font-family="ui-sans-serif, system-ui" font-weight="700" font-size="14">Webhooks</text>

  <rect x="150" y="220" width="460" height="56" rx="16" fill="rgba(255,255,255,0.06)"/>
  <text x="176" y="254" fill="rgba(255,255,255,0.70)" font-family="ui-sans-serif, system-ui" font-weight="600" font-size="12">Webhook URL</text>
  <rect x="150" y="292" width="300" height="54" rx="16" fill="rgba(34,211,238,0.18)" stroke="rgba(34,211,238,0.35)"/>
  <text x="176" y="324" fill="rgba(255,255,255,0.85)" font-family="ui-sans-serif, system-ui" font-weight="700" font-size="12">Send test payload</text>

  <rect x="150" y="370" width="460" height="170" rx="18" fill="rgba(0,0,0,0.35)" stroke="rgba(255,255,255,0.10)"/>
  <rect x="170" y="392" width="220" height="12" rx="6" fill="rgba(255,255,255,0.08)"/>
  <rect x="170" y="418" width="320" height="12" rx="6" fill="rgba(255,255,255,0.06)"/>
  <rect x="170" y="444" width="280" height="12" rx="6" fill="rgba(255,255,255,0.06)"/>
  <rect x="170" y="470" width="340" height="12" rx="6" fill="rgba(255,255,255,0.06)"/>

  <rect x="720" y="150" width="360" height="420" rx="22" fill="rgba(255,255,255,0.04)" stroke="rgba(255,255,255,0.10)"/>
  <text x="748" y="192" fill="rgba(255,255,255,0.80)" font-family="ui-sans-serif, system-ui" font-weight="700" font-size="14">CSV export</text>
  <rect x="748" y="220" width="304" height="42" rx="14" fill="rgba(255,255,255,0.06)"/>
  <rect x="748" y="270" width="304" height="42" rx="14" fill="rgba(255,255,255,0.04)" stroke="rgba(255,255,255,0.10)" stroke-dasharray="8 8"/>
  <rect x="748" y="320" width="304" height="42" rx="14" fill="rgba(255,255,255,0.04)" stroke="rgba(255,255,255,0.10)" stroke-dasharray="8 8"/>
  <rect x="748" y="388" width="180" height="56" rx="16" fill="rgba(34,211,238,0.18)" stroke="rgba(34,211,238,0.35)"/>
  <text x="780" y="422" fill="rgba(255,255,255,0.85)" font-family="ui-sans-serif, system-ui" font-weight="700" font-size="12">Export CSV</text>
</svg>

