<svg width="1200" height="720" viewBox="0 0 1200 720" fill="none" xmlns="http://www.w3.org/2000/svg">
  <rect width="1200" height="720" rx="28" fill="#070A0F"/>
  <rect x="28" y="28" width="1144" height="664" rx="22" fill="rgba(255,255,255,0.02)" stroke="rgba(255,255,255,0.10)"/>
  <rect x="120" y="150" width="520" height="420" rx="22" fill="rgba(255,255,255,0.04)" stroke="rgba(255,255,255,0.10)"/>
  <rect x="170" y="210" width="420" height="200" rx="18" fill="rgba(34,211,238,0.08)" stroke="rgba(34,211,238,0.22)"/>
  <rect x="170" y="430" width="260" height="14" rx="7" fill="rgba(255,255,255,0.06)"/>
  <rect x="170" y="456" width="340" height="14" rx="7" fill="rgba(255,255,255,0.06)"/>
  <rect x="170" y="492" width="180" height="44" rx="14" fill="rgba(34,211,238,0.18)" stroke="rgba(34,211,238,0.35)"/>

  <rect x="720" y="190" width="360" height="360" rx="22" fill="rgba(255,255,255,0.04)" stroke="rgba(255,255,255,0.10)"/>
  <path d="M860 310c0-38 30-68 68-68s68 30 68 68-30 68-68 68-68-30-68-68z" fill="rgba(34,211,238,0.10)" stroke="rgba(34,211,238,0.30)" stroke-width="4"/>
  <path d="M928 262v96" stroke="rgba(255,255,255,0.60)" stroke-width="8" stroke-linecap="round"/>
  <path d="M880 310h96" stroke="rgba(255,255,255,0.60)" stroke-width="8" stroke-linecap="round"/>
  <rect x="780" y="420" width="240" height="14" rx="7" fill="rgba(255,255,255,0.06)"/>
  <rect x="780" y="448" width="200" height="14" rx="7" fill="rgba(255,255,255,0.06)"/>
  <text x="120" y="610" fill="rgba(255,255,255,0.75)" font-family="ui-sans-serif, system-ui" font-weight="600" font-size="14">Shopify themes, extensions, integrations</text>
</svg>

